<svg version="1.0" xmlns="http://www.w3.org/2000/svg" width="512" height="512" viewBox="0 0 453 561" preserveAspectRatio="xMidYMid meet">
<rect width="100%" height="100%" fill="#4f46e5"/>
<g transform="translate(0,561) scale(0.1,-0.1)" fill="#ffffff" stroke="none">
<path d="M3110 5014 c-25 -7 -56 -14 -69 -14 -65 0 -301 -112 -361 -170 -8 -8
-26 -24 -40 -35 -14 -11 -50 -49 -81 -85 -96 -113 -116 -148 -165 -285 l-39
-110 1 -185 c1 -231 16 -292 130 -502 19 -35 216 -238 230 -238 7 0 17 -7 24
-15 17 -20 211 -115 236 -115 12 0 39 -7 60 -16 31 -13 73 -17 205 -16 192 0
267 16 409 85 132 65 306 219 361 320 129 238 176 461 134 624 -8 31 -15 72
-15 90 0 34 -21 46 -37 20 -4 -7 -25 -26 -45 -43 l-38 -29 0 -133 c0 -102 -5
-150 -21 -209 -22 -84 -53 -163 -79 -203 -9 -14 -29 -44 -44 -67 -58 -88 -182
-192 -286 -241 -131 -61 -153 -65 -325 -65 -139 -1 -169 2 -232 22 -124 39
-235 109 -326 205 -265 282 -280 700 -36 1002 109 134 245 215 438 260 86 20
255 15 331 -10 93 -30 151 -55 200 -85 28 -17 55 -31 60 -31 19 0 103 87 96
99 -11 17 -81 60 -156 97 -165 80 -402 116 -520 78z"/>
<path d="M2110 4910 c-19 -4 -60 -13 -90 -19 -58 -12 -134 -32 -211 -56 -26
-8 -60 -15 -75 -15 -16 -1 -40 -7 -54 -15 -14 -8 -38 -15 -55 -15 -16 0 -41
-7 -55 -15 -14 -8 -35 -14 -48 -15 -12 0 -30 -4 -40 -9 -9 -6 -80 -30 -157
-55 -172 -56 -305 -102 -312 -110 -4 -3 -14 -6 -24 -6 -9 0 -30 -7 -46 -15
-15 -8 -55 -24 -88 -36 -33 -12 -87 -35 -120 -50 -33 -15 -90 -39 -125 -54
-36 -15 -74 -34 -85 -41 -11 -8 -27 -14 -37 -14 -9 0 -24 -10 -32 -22 -14 -20
-16 -147 -16 -1169 0 -1118 1 -1148 21 -1244 11 -54 22 -102 25 -106 2 -4 8
-27 13 -51 20 -96 123 -315 167 -353 6 -5 25 -30 41 -55 38 -56 137 -153 223
-218 36 -27 71 -56 79 -65 7 -10 17 -17 22 -17 5 0 42 -24 82 -53 39 -30 84
-60 99 -68 14 -8 64 -40 111 -71 46 -32 88 -58 92 -58 4 0 28 -15 54 -33 25
-18 53 -36 61 -41 16 -8 50 -28 159 -93 38 -24 74 -43 79 -43 5 0 15 -7 23
-16 7 -9 49 -34 93 -56 43 -22 86 -46 93 -54 8 -8 18 -14 22 -14 4 0 48 -22
97 -50 49 -27 96 -50 104 -50 8 0 38 12 65 27 28 15 80 43 117 62 56 30 232
131 289 166 9 6 38 22 65 38 27 15 58 33 69 39 11 7 43 26 70 42 28 17 52 33
55 36 3 3 23 17 45 31 123 80 173 109 183 109 7 0 12 5 12 10 0 6 10 15 23 20
12 5 40 23 62 40 22 16 51 35 65 42 57 29 303 235 345 290 6 7 26 33 45 58 19
25 38 47 41 50 8 6 24 36 76 139 23 45 46 88 51 94 5 7 12 26 15 42 2 17 9 44
15 60 31 93 42 137 42 171 0 22 7 61 15 88 13 41 15 150 15 682 0 431 -3 635
-11 639 -5 4 -32 -13 -58 -37 -27 -23 -64 -52 -82 -63 l-34 -20 -6 -595 c-7
-640 -11 -689 -61 -825 -58 -158 -108 -246 -206 -364 -54 -64 -246 -218 -387
-311 -13 -8 -54 -36 -91 -61 -124 -82 -182 -119 -189 -119 -4 0 -24 -12 -44
-27 -20 -16 -51 -36 -69 -46 -18 -10 -115 -66 -215 -124 -100 -58 -202 -117
-227 -130 -25 -14 -49 -29 -54 -34 -31 -29 -82 -6 -383 175 -51 31 -96 56
-101 56 -4 0 -31 16 -61 35 -29 19 -57 35 -62 35 -4 0 -23 12 -41 27 -35 30
-64 49 -88 60 -15 6 -100 60 -207 131 -29 18 -53 38 -53 43 0 5 -4 9 -9 9 -17
0 -161 102 -239 170 -167 145 -256 278 -316 473 -68 224 -66 178 -66 1353 0
1205 -10 1078 89 1113 29 10 57 23 64 30 6 6 20 11 32 11 12 0 30 7 41 15 10
8 26 15 34 15 8 0 28 7 44 15 15 8 35 15 43 15 8 0 27 6 41 14 15 8 47 22 72
31 25 9 60 23 78 31 18 8 40 14 48 14 9 0 28 6 42 14 30 15 81 33 127 46 31 8
85 27 120 41 31 12 146 41 185 47 19 2 40 9 47 14 11 9 78 28 173 49 25 5 53
14 62 19 10 6 33 10 52 10 18 0 50 7 69 15 47 19 172 20 226 0 50 -17 65 -13
90 28 11 18 33 45 50 61 17 17 31 35 31 43 0 17 -33 33 -68 33 -16 0 -48 6
-70 14 -50 18 -185 28 -232 16z"/>
<path d="M4025 4842 c-16 -11 -210 -200 -430 -420 -220 -221 -408 -402 -417
-402 -10 0 -73 54 -140 120 l-123 119 -52 1 c-41 0 -58 -5 -82 -26 -28 -23
-31 -31 -31 -82 l0 -57 177 -173 c98 -95 193 -180 210 -187 46 -20 85 -5 152
56 143 132 894 887 902 907 30 77 -13 151 -91 159 -33 3 -53 -1 -75 -15z"/>
<path d="M1388 3953 c-57 -3 -70 -7 -80 -26 -10 -17 -14 -258 -16 -1112 -1
-599 0 -1122 3 -1162 11 -121 -93 -108 887 -110 575 -2 864 1 886 8 20 7 34
19 37 32 3 12 4 355 3 762 l-3 740 -29 -3 c-16 -2 -36 4 -47 14 -13 11 -23 14
-29 8 -6 -6 -11 -278 -12 -719 l-3 -710 -780 0 -780 0 -7 365 c-4 201 -7 685
-5 1075 l2 710 414 3 413 2 -5 30 c-4 16 -13 45 -21 64 l-15 36 -373 -2 c-205
-1 -403 -3 -440 -5z"/>
<path d="M1611 3186 c-7 -8 -11 -34 -9 -58 l3 -43 595 0 595 0 2 44 c2 24 -2
50 -8 58 -17 20 -1161 19 -1178 -1z"/>
<path d="M1612 2898 c-16 -16 -15 -73 2 -87 9 -8 174 -10 597 -9 l584 3 3 44
c2 28 -1 47 -10 52 -22 14 -1162 11 -1176 -3z"/>
<path d="M1607 2623 c-8 -15 -6 -77 4 -95 9 -17 37 -18 602 -16 l592 3 0 55 0
55 -597 3 c-328 1 -599 -1 -601 -5z"/>
<path d="M1612 2348 c-5 -7 -9 -33 -8 -58 l1 -45 600 0 600 0 -4 50 c-1 28 -5
53 -8 58 -2 4 -267 7 -587 7 -455 0 -586 -3 -594 -12z"/>
<path d="M1610 2056 c-12 -12 -13 -66 -1 -84 6 -10 125 -14 581 -18 315 -2
581 -2 591 1 27 9 28 101 1 109 -31 10 -1162 2 -1172 -8z"/>
</g>
</svg>
